<mxfile host="app.diagrams.net" agent="Mozilla/5.0 (Windows NT 10.0; Win64; x64) AppleWebKit/537.36 (KHTML, like Gecko) Chrome/128.0.0.0 Safari/537.36" version="24.7.14">
  <diagram id="C5RBs43oDa-KdzZeNtuy" name="Page-1">
    <mxGraphModel dx="1232" dy="1090" grid="1" gridSize="10" guides="1" tooltips="1" connect="1" arrows="1" fold="1" page="1" pageScale="1" pageWidth="827" pageHeight="1169" background="#ffffff" math="0" shadow="0">
      <root>
        <mxCell id="WIyWlLk6GJQsqaUBKTNV-0" />
        <mxCell id="WIyWlLk6GJQsqaUBKTNV-1" parent="WIyWlLk6GJQsqaUBKTNV-0" />
        <mxCell id="LI9GZYLnp5pJ0-7i5mNz-3" value="&lt;font style=&quot;font-size: 14px;&quot;&gt;CNN&lt;/font&gt;&lt;div&gt;&lt;font style=&quot;font-size: 14px;&quot;&gt;(ResNet152V2)&lt;/font&gt;&lt;/div&gt;" style="rounded=0;whiteSpace=wrap;html=1;fillColor=#f8cecc;strokeColor=#b85450;strokeWidth=2;" vertex="1" parent="WIyWlLk6GJQsqaUBKTNV-1">
          <mxGeometry x="80" y="201" width="160" height="80" as="geometry" />
        </mxCell>
        <mxCell id="LI9GZYLnp5pJ0-7i5mNz-24" style="edgeStyle=orthogonalEdgeStyle;rounded=0;orthogonalLoop=1;jettySize=auto;html=1;exitX=0.5;exitY=1;exitDx=0;exitDy=0;entryX=0;entryY=0.5;entryDx=0;entryDy=0;fillColor=#dae8fc;strokeColor=#6c8ebf;strokeWidth=2;" edge="1" parent="WIyWlLk6GJQsqaUBKTNV-1" source="LI9GZYLnp5pJ0-7i5mNz-4" target="LI9GZYLnp5pJ0-7i5mNz-18">
          <mxGeometry relative="1" as="geometry" />
        </mxCell>
        <mxCell id="LI9GZYLnp5pJ0-7i5mNz-4" value="&lt;font style=&quot;font-size: 14px;&quot;&gt;XGBoost&lt;/font&gt;" style="ellipse;whiteSpace=wrap;html=1;fillColor=#dae8fc;strokeColor=#6c8ebf;strokeWidth=2;" vertex="1" parent="WIyWlLk6GJQsqaUBKTNV-1">
          <mxGeometry x="80" y="481" width="160" height="100" as="geometry" />
        </mxCell>
        <mxCell id="LI9GZYLnp5pJ0-7i5mNz-5" value="LightGBM" style="ellipse;whiteSpace=wrap;html=1;fillColor=#ffe6cc;strokeColor=#d79b00;strokeWidth=2;" vertex="1" parent="WIyWlLk6GJQsqaUBKTNV-1">
          <mxGeometry x="320" y="481" width="160" height="100" as="geometry" />
        </mxCell>
        <mxCell id="LI9GZYLnp5pJ0-7i5mNz-6" value="Gradient Boosting" style="ellipse;whiteSpace=wrap;html=1;fillColor=#e1d5e7;strokeColor=#9673a6;strokeWidth=2;" vertex="1" parent="WIyWlLk6GJQsqaUBKTNV-1">
          <mxGeometry x="560" y="481" width="160" height="100" as="geometry" />
        </mxCell>
        <mxCell id="LI9GZYLnp5pJ0-7i5mNz-7" value="&lt;font style=&quot;font-size: 14px;&quot;&gt;Metadata&lt;/font&gt;&lt;div&gt;&lt;font style=&quot;font-size: 14px;&quot;&gt;(Original + FE)&lt;/font&gt;&lt;/div&gt;" style="rounded=0;whiteSpace=wrap;html=1;fillColor=#d5e8d4;strokeColor=#82b366;strokeWidth=2;" vertex="1" parent="WIyWlLk6GJQsqaUBKTNV-1">
          <mxGeometry x="560" y="201" width="160" height="80" as="geometry" />
        </mxCell>
        <mxCell id="LI9GZYLnp5pJ0-7i5mNz-10" value="" style="endArrow=classic;html=1;rounded=0;exitX=0.5;exitY=1;exitDx=0;exitDy=0;entryX=0.5;entryY=0;entryDx=0;entryDy=0;fillColor=#f8cecc;strokeColor=#b85450;strokeWidth=2;" edge="1" parent="WIyWlLk6GJQsqaUBKTNV-1" source="LI9GZYLnp5pJ0-7i5mNz-3" target="LI9GZYLnp5pJ0-7i5mNz-4">
          <mxGeometry width="50" height="50" relative="1" as="geometry">
            <mxPoint x="390" y="661" as="sourcePoint" />
            <mxPoint x="440" y="611" as="targetPoint" />
          </mxGeometry>
        </mxCell>
        <mxCell id="LI9GZYLnp5pJ0-7i5mNz-12" value="" style="endArrow=classic;html=1;rounded=0;exitX=0.5;exitY=1;exitDx=0;exitDy=0;entryX=0.5;entryY=0;entryDx=0;entryDy=0;strokeWidth=2;fillColor=#f8cecc;strokeColor=#b85450;" edge="1" parent="WIyWlLk6GJQsqaUBKTNV-1" source="LI9GZYLnp5pJ0-7i5mNz-3" target="LI9GZYLnp5pJ0-7i5mNz-5">
          <mxGeometry width="50" height="50" relative="1" as="geometry">
            <mxPoint x="390" y="661" as="sourcePoint" />
            <mxPoint x="440" y="611" as="targetPoint" />
          </mxGeometry>
        </mxCell>
        <mxCell id="LI9GZYLnp5pJ0-7i5mNz-13" value="" style="endArrow=classic;html=1;rounded=0;exitX=0.5;exitY=1;exitDx=0;exitDy=0;entryX=0.5;entryY=0;entryDx=0;entryDy=0;strokeWidth=2;fillColor=#f8cecc;strokeColor=#b85450;" edge="1" parent="WIyWlLk6GJQsqaUBKTNV-1" source="LI9GZYLnp5pJ0-7i5mNz-3" target="LI9GZYLnp5pJ0-7i5mNz-6">
          <mxGeometry width="50" height="50" relative="1" as="geometry">
            <mxPoint x="170" y="291" as="sourcePoint" />
            <mxPoint x="410" y="491" as="targetPoint" />
          </mxGeometry>
        </mxCell>
        <mxCell id="LI9GZYLnp5pJ0-7i5mNz-15" value="" style="endArrow=classic;html=1;rounded=0;exitX=0.5;exitY=1;exitDx=0;exitDy=0;entryX=0.5;entryY=0;entryDx=0;entryDy=0;fillColor=#d5e8d4;strokeColor=#82b366;strokeWidth=2;" edge="1" parent="WIyWlLk6GJQsqaUBKTNV-1" source="LI9GZYLnp5pJ0-7i5mNz-7" target="LI9GZYLnp5pJ0-7i5mNz-4">
          <mxGeometry width="50" height="50" relative="1" as="geometry">
            <mxPoint x="390" y="661" as="sourcePoint" />
            <mxPoint x="440" y="611" as="targetPoint" />
          </mxGeometry>
        </mxCell>
        <mxCell id="LI9GZYLnp5pJ0-7i5mNz-16" value="" style="endArrow=classic;html=1;rounded=0;exitX=0.5;exitY=1;exitDx=0;exitDy=0;fillColor=#d5e8d4;strokeColor=#82b366;strokeWidth=2;" edge="1" parent="WIyWlLk6GJQsqaUBKTNV-1" source="LI9GZYLnp5pJ0-7i5mNz-7">
          <mxGeometry width="50" height="50" relative="1" as="geometry">
            <mxPoint x="650" y="291" as="sourcePoint" />
            <mxPoint x="400" y="481" as="targetPoint" />
          </mxGeometry>
        </mxCell>
        <mxCell id="LI9GZYLnp5pJ0-7i5mNz-17" value="" style="endArrow=classic;html=1;rounded=0;exitX=0.5;exitY=1;exitDx=0;exitDy=0;entryX=0.5;entryY=0;entryDx=0;entryDy=0;fillColor=#d5e8d4;strokeColor=#82b366;strokeWidth=2;" edge="1" parent="WIyWlLk6GJQsqaUBKTNV-1" source="LI9GZYLnp5pJ0-7i5mNz-7" target="LI9GZYLnp5pJ0-7i5mNz-6">
          <mxGeometry width="50" height="50" relative="1" as="geometry">
            <mxPoint x="660" y="301" as="sourcePoint" />
            <mxPoint x="180" y="501" as="targetPoint" />
          </mxGeometry>
        </mxCell>
        <mxCell id="LI9GZYLnp5pJ0-7i5mNz-25" style="edgeStyle=orthogonalEdgeStyle;rounded=0;orthogonalLoop=1;jettySize=auto;html=1;exitX=0.5;exitY=1;exitDx=0;exitDy=0;fillColor=#f5f5f5;strokeColor=#666666;strokeWidth=2;" edge="1" parent="WIyWlLk6GJQsqaUBKTNV-1" source="LI9GZYLnp5pJ0-7i5mNz-18">
          <mxGeometry relative="1" as="geometry">
            <mxPoint x="400" y="921" as="targetPoint" />
          </mxGeometry>
        </mxCell>
        <mxCell id="LI9GZYLnp5pJ0-7i5mNz-18" value="&lt;span style=&quot;font-size: 14px;&quot;&gt;Soft Voting&lt;/span&gt;&lt;div&gt;&lt;span style=&quot;font-size: 14px;&quot;&gt;(Mean)&lt;/span&gt;&lt;/div&gt;" style="rounded=0;whiteSpace=wrap;html=1;strokeWidth=2;fillColor=#f5f5f5;strokeColor=#666666;fontColor=#333333;" vertex="1" parent="WIyWlLk6GJQsqaUBKTNV-1">
          <mxGeometry x="340" y="764" width="120" height="77" as="geometry" />
        </mxCell>
        <mxCell id="LI9GZYLnp5pJ0-7i5mNz-20" value="" style="endArrow=classic;html=1;rounded=0;exitX=0.5;exitY=1;exitDx=0;exitDy=0;entryX=0.5;entryY=0;entryDx=0;entryDy=0;fillColor=#ffe6cc;strokeColor=#d79b00;strokeWidth=2;" edge="1" parent="WIyWlLk6GJQsqaUBKTNV-1" source="LI9GZYLnp5pJ0-7i5mNz-5" target="LI9GZYLnp5pJ0-7i5mNz-18">
          <mxGeometry width="50" height="50" relative="1" as="geometry">
            <mxPoint x="170" y="591" as="sourcePoint" />
            <mxPoint x="370" y="711" as="targetPoint" />
          </mxGeometry>
        </mxCell>
        <mxCell id="LI9GZYLnp5pJ0-7i5mNz-21" value="" style="endArrow=classic;html=1;rounded=0;exitX=0.5;exitY=1;exitDx=0;exitDy=0;fillColor=#e1d5e7;strokeColor=#9673a6;strokeWidth=2;edgeStyle=orthogonalEdgeStyle;entryX=1;entryY=0.5;entryDx=0;entryDy=0;" edge="1" parent="WIyWlLk6GJQsqaUBKTNV-1" source="LI9GZYLnp5pJ0-7i5mNz-6" target="LI9GZYLnp5pJ0-7i5mNz-18">
          <mxGeometry width="50" height="50" relative="1" as="geometry">
            <mxPoint x="410" y="591" as="sourcePoint" />
            <mxPoint x="460" y="761" as="targetPoint" />
          </mxGeometry>
        </mxCell>
        <mxCell id="LI9GZYLnp5pJ0-7i5mNz-26" value="&lt;font style=&quot;font-size: 14px;&quot;&gt;Final Prediction&lt;/font&gt;" style="text;html=1;align=center;verticalAlign=middle;whiteSpace=wrap;rounded=0;" vertex="1" parent="WIyWlLk6GJQsqaUBKTNV-1">
          <mxGeometry x="350" y="931" width="100" height="30" as="geometry" />
        </mxCell>
        <mxCell id="LI9GZYLnp5pJ0-7i5mNz-27" value="&lt;font style=&quot;font-size: 14px;&quot;&gt;Input Layer&lt;/font&gt;" style="text;html=1;align=center;verticalAlign=middle;whiteSpace=wrap;rounded=0;" vertex="1" parent="WIyWlLk6GJQsqaUBKTNV-1">
          <mxGeometry x="350" y="226" width="100" height="30" as="geometry" />
        </mxCell>
        <mxCell id="LI9GZYLnp5pJ0-7i5mNz-28" value="" style="whiteSpace=wrap;html=1;aspect=fixed;" vertex="1" parent="WIyWlLk6GJQsqaUBKTNV-1">
          <mxGeometry x="132" y="80" width="80" height="80" as="geometry" />
        </mxCell>
        <mxCell id="LI9GZYLnp5pJ0-7i5mNz-29" value="" style="whiteSpace=wrap;html=1;aspect=fixed;" vertex="1" parent="WIyWlLk6GJQsqaUBKTNV-1">
          <mxGeometry x="122" y="90" width="80" height="80" as="geometry" />
        </mxCell>
        <mxCell id="LI9GZYLnp5pJ0-7i5mNz-30" value="" style="whiteSpace=wrap;html=1;aspect=fixed;" vertex="1" parent="WIyWlLk6GJQsqaUBKTNV-1">
          <mxGeometry x="112" y="100" width="80" height="80" as="geometry" />
        </mxCell>
        <mxCell id="LI9GZYLnp5pJ0-7i5mNz-31" value="&lt;font style=&quot;font-size: 14px;&quot;&gt;Images&lt;/font&gt;" style="text;html=1;align=center;verticalAlign=middle;whiteSpace=wrap;rounded=0;" vertex="1" parent="WIyWlLk6GJQsqaUBKTNV-1">
          <mxGeometry x="112" y="40" width="100" height="30" as="geometry" />
        </mxCell>
      </root>
    </mxGraphModel>
  </diagram>
</mxfile>
